 <svg
              width="67"
              height="23"
              viewBox="0 0 67 23"
              fill="none"
              xmlns="http://www.w3.org/2000/svg"
            >
              <path
                d="M1.22302 9.23247C1.22302 9.06545 1.31189 8.91104 1.4563 8.82713L4.5211 7.04641C4.67737 6.95561 4.87326 7.06835 4.87326 7.24908V20.1449C4.87326 20.2345 4.80062 20.3071 4.71102 20.3071H1.38526C1.29566 20.3071 1.22302 20.2345 1.22302 20.1449V9.23247Z"
                fill="url(#paint0_linear)"
              />
              <path
                d="M1.22303 8.70173C1.22303 8.6438 1.25391 8.59027 1.30407 8.56128L4.62984 6.63876C4.73799 6.57624 4.87326 6.65429 4.87326 6.77922L4.87326 13.412C4.87326 13.5464 4.76431 13.6553 4.62991 13.6553H1.46637C1.33198 13.6553 1.22303 13.5464 1.22303 13.412V8.70173Z"
                fill="url(#paint1_linear)"
              />
              <path
                d="M10.4459 6.44203L1.54883 11.5505C1.34729 11.6662 1.22302 11.8809 1.22302 12.1133V15.9062L10.8505 10.3477C11.0513 10.2318 11.175 10.0176 11.175 9.78571V6.86411C11.175 6.48996 10.7704 6.25573 10.4459 6.44203Z"
                fill="url(#paint2_linear)"
              />
              <path
                fill-rule="evenodd"
                clip-rule="evenodd"
                d="M1.61523 15.6805C1.38171 15.8063 1.22299 16.0531 1.22299 16.3369C1.22299 16.3387 1.223 16.3406 1.22301 16.3424L1.22298 16.3424V15.458L1.61523 15.6805Z"
                fill="#6501E5"
              />
              <path
                fill-rule="evenodd"
                clip-rule="evenodd"
                d="M10.8285 10.3607C10.8609 10.2836 10.8787 10.1989 10.8787 10.11C10.8787 9.97192 10.8356 9.84391 10.7621 9.73871L11.177 9.50391V9.78483C11.177 10.0165 11.0535 10.2306 10.8529 10.3466L10.8285 10.3607Z"
                fill="#9327FE"
              />
              <path
                d="M10.7676 9.75035C10.6564 9.40835 4.95098 5.57571 1.024 2.92067C0.891503 2.8311 0.955666 2.62469 1.1156 2.62469L5.79264 2.62466C5.82555 2.62466 5.85768 2.63467 5.88477 2.65336L10.8968 6.11114C11.0724 6.23227 11.1772 6.43197 11.1772 6.64528L11.1772 9.5123L10.7676 9.75035Z"
                fill="#9327FE"
              />
              <path
                d="M13.5156 13.2919C13.3794 13.2507 13.1751 13.2232 12.9707 13.2232C12.4259 13.2232 11.5678 13.4429 11.2137 14.2116V13.2919H9.21143V20.1147H11.2818V17.1357C11.2818 15.7766 12.0309 15.2824 12.8618 15.2824C13.0661 15.2824 13.284 15.2962 13.5156 15.3511V13.2919Z"
                fill="#0556F3"
              />
              <path
                d="M17.7972 18.3987C17.0208 18.3987 16.2716 17.8358 16.2716 16.6964C16.2716 15.5433 17.0208 15.0079 17.7972 15.0079C18.5872 15.0079 19.3227 15.5433 19.3227 16.6964C19.3227 17.8496 18.5872 18.3987 17.7972 18.3987ZM17.7972 13.0859C15.7813 13.0859 14.2013 14.5823 14.2013 16.6964C14.2013 18.8105 15.7813 20.3206 17.7972 20.3206C19.8267 20.3206 21.393 18.8105 21.393 16.6964C21.393 14.5823 19.8267 13.0859 17.7972 13.0859Z"
                fill="#0556F3"
              />
              <path
                d="M22.249 20.4991C22.4397 21.7209 23.6792 22.9289 25.627 22.9289C28.1604 22.9289 29.2501 21.2267 29.2501 19.2636V13.2919H27.2751V14.0194C27.0844 13.6625 26.4987 13.1683 25.3954 13.1683C23.543 13.1683 22.249 14.7058 22.249 16.5042C22.249 18.3987 23.5975 19.8264 25.3954 19.8264C26.3761 19.8264 26.9618 19.4283 27.207 19.0576V19.3734C27.207 20.6089 26.5668 21.1168 25.5316 21.1168C24.7552 21.1168 24.2104 20.6364 24.0742 19.9774L22.249 20.4991ZM25.7768 18.0143C24.9459 18.0143 24.3194 17.4377 24.3194 16.5042C24.3194 15.5707 25.0004 14.9941 25.7768 14.9941C26.5532 14.9941 27.2206 15.5707 27.2206 16.5042C27.2206 17.4377 26.6213 18.0143 25.7768 18.0143Z"
                fill="#0556F3"
              />
              <path
                d="M35.3034 13.2919C35.1672 13.2507 34.9629 13.2232 34.7586 13.2232C34.2138 13.2232 33.3557 13.4429 33.0015 14.2116V13.2919H30.9993V20.1147H33.0696V17.1357C33.0696 15.7766 33.8188 15.2824 34.6496 15.2824C34.8539 15.2824 35.0719 15.2962 35.3034 15.3511V13.2919Z"
                fill="#0556F3"
              />
              <path
                d="M36.2039 18.234C36.2039 19.3185 37.062 20.3069 38.5466 20.3069C39.4456 20.3069 40.0994 19.9225 40.4535 19.3459C40.4535 19.8127 40.508 20.0598 40.5216 20.1147H42.3877C42.3741 20.0461 42.306 19.593 42.306 19.0576V15.7217C42.306 14.3215 41.5023 13.0859 39.3094 13.0859C37.3208 13.0859 36.4218 14.3764 36.3401 15.3511L38.138 15.7217C38.1789 15.2138 38.5739 14.7196 39.2958 14.7196C39.9496 14.7196 40.2901 15.0628 40.2901 15.4609C40.2901 15.6943 40.1675 15.8727 39.7998 15.9276L38.2061 16.1747C37.0892 16.3395 36.2039 17.0259 36.2039 18.234ZM39.0506 18.7968C38.4785 18.7968 38.247 18.4536 38.247 18.0967C38.247 17.6162 38.5739 17.4103 39.0098 17.3416L40.2901 17.1357V17.4377C40.2901 18.4948 39.6635 18.7968 39.0506 18.7968Z"
                fill="#0556F3"
              />
              <path
                d="M46.1184 20.1147V16.1885C46.1184 15.5707 46.5134 15.0079 47.2353 15.0079C47.9844 15.0079 48.3249 15.5158 48.3249 16.161V20.1147H50.3681V16.1747C50.3681 15.5707 50.7631 15.0079 51.4986 15.0079C52.2341 15.0079 52.5746 15.5158 52.5746 16.161V20.1147H54.5769V15.6943C54.5769 13.841 53.351 13.0859 52.0706 13.0859C51.1581 13.0859 50.5043 13.388 49.9731 14.1567C49.6325 13.4841 48.9379 13.0859 47.9708 13.0859C47.2353 13.0859 46.3636 13.4703 46.023 14.0744V13.2919H44.048V20.1147H46.1184Z"
                fill="#0556F3"
              />
              <path
                d="M66.8053 20.1147V18.3163H63.6317L66.7508 15.0079V13.2919H61.2072V15.0765H64.1084L61.1254 18.2751V20.1147H66.8053Z"
                fill="#0556F3"
              />
              <path
                d="M58.8262 20.1006H56.4457L57.146 15.6276H56.4457V13.1348H59.5222V15.6276L58.8262 20.1006Z"
                fill="#065AFF"
              />
              <path
                d="M59.5222 8.63086H56.4457V11.5804H59.5222V8.63086Z"
                fill="#065AFF"
              />
              <defs>
                <linearGradient
                  id="paint0_linear"
                  x1="3.04814"
                  y1="18.908"
                  x2="3.04814"
                  y2="12.7495"
                  gradientUnits="userSpaceOnUse"
                >
                  <stop stop-color="#00A3FF" />
                  <stop offset="1" stop-color="#0597EA" />
                </linearGradient>
                <linearGradient
                  id="paint1_linear"
                  x1="3.04814"
                  y1="12.9473"
                  x2="3.04814"
                  y2="9.83097"
                  gradientUnits="userSpaceOnUse"
                >
                  <stop stop-color="#00A3FF" />
                  <stop offset="1" stop-color="#0597EA" />
                </linearGradient>
                <linearGradient
                  id="paint2_linear"
                  x1="4.36361"
                  y1="11.8301"
                  x2="11.8546"
                  y2="7.62746"
                  gradientUnits="userSpaceOnUse"
                >
                  <stop stop-color="#6501E5" />
                  <stop offset="1" stop-color="#5F01D8" />
                </linearGradient>
              </defs>
            </svg>